<?xml version="1.0" standalone="no"?><svg xmlns="http://www.w3.org/2000/svg" viewBox="0 0 1440 320"><path fill="#5000ca" fill-opacity="1" d="M0,160L30,149.3C60,139,120,117,180,133.3C240,149,300,203,360,218.7C420,235,480,213,540,213.3C600,213,660,235,720,218.7C780,203,840,149,900,133.3C960,117,1020,139,1080,165.3C1140,192,1200,224,1260,229.3C1320,235,1380,213,1410,202.7L1440,192L1440,320L1410,320C1380,320,1320,320,1260,320C1200,320,1140,320,1080,320C1020,320,960,320,900,320C840,320,780,320,720,320C660,320,600,320,540,320C480,320,420,320,360,320C300,320,240,320,180,320C120,320,60,320,30,320L0,320Z"></path></svg>